<svg xmlns="http://www.w3.org/2000/svg" viewBox="0 0 120 120">
  <defs>
    <g id="bars">
      <path d="M42,26 H94 l-6,11 H42 Z"/>
      <path d="M30,40 H84 l4,11 H30 Z"/>
      <path d="M44,54 H92 l-5,11 H44 Z"/>
      <path d="M26,68 H78 l6,11 H26 Z"/>
      <path d="M40,82 H96 l-4,11 H40 Z"/>
    </g>
    <mask id="scan">
      <rect width="120" height="120" fill="#fff"/>
      <rect x="18" y="37" width="90" height="3" fill="#000"/>
      <rect x="18" y="51" width="90" height="3" fill="#000"/>
      <rect x="18" y="65" width="90" height="3" fill="#000"/>
      <rect x="18" y="79" width="90" height="3" fill="#000"/>
    </mask>
  </defs>
  <g mask="url(#scan)">
    <use href="#bars" fill="#16323f" opacity="0.8" transform="translate(-3,0)"/>
    <use href="#bars" fill="#241c3a" opacity="0.8" transform="translate(3,1)"/>
    <use href="#bars" fill="#88a6c0"/>
    <rect x="58" y="55" width="40" height="9" fill="#2f6d82"/>
    <rect x="24" y="41" width="12" height="8" fill="#16323f" opacity="0.85"/>
  </g>
</svg>
